<?xml version="1.0" encoding="UTF-8" standalone="no"?>
<svg
   xmlns:dc="http://purl.org/dc/elements/1.1/"
   xmlns:cc="http://creativecommons.org/ns#"
   xmlns:rdf="http://www.w3.org/1999/02/22-rdf-syntax-ns#"
   xmlns:svg="http://www.w3.org/2000/svg"
   xmlns="http://www.w3.org/2000/svg"
   xmlns:sodipodi="http://sodipodi.sourceforge.net/DTD/sodipodi-0.dtd"
   xmlns:inkscape="http://www.inkscape.org/namespaces/inkscape"
   width="100%"
   height="100%"
   viewBox="0 0 3943 4388"
   version="1.1"
   xml:space="preserve"
   style="fill-rule:evenodd;clip-rule:evenodd;stroke-linejoin:round;stroke-miterlimit:2;"
   id="svg21"
   sodipodi:docname="BG.svg"
   inkscape:version="0.92.5 (2060ec1f9f, 2020-04-08)"><metadata
   id="metadata25"><rdf:RDF><cc:Work
       rdf:about=""><dc:format>image/svg+xml</dc:format><dc:type
         rdf:resource="http://purl.org/dc/dcmitype/StillImage" /><dc:title /></cc:Work></rdf:RDF></metadata><sodipodi:namedview
   pagecolor="#ffffff"
   bordercolor="#666666"
   borderopacity="1"
   objecttolerance="10"
   gridtolerance="10"
   guidetolerance="10"
   inkscape:pageopacity="0"
   inkscape:pageshadow="2"
   inkscape:window-width="1366"
   inkscape:window-height="719"
   id="namedview23"
   showgrid="false"
   inkscape:zoom="0.16214493"
   inkscape:cx="1023.1993"
   inkscape:cy="1090.7516"
   inkscape:window-x="0"
   inkscape:window-y="25"
   inkscape:window-maximized="1"
   inkscape:current-layer="svg21"
   units="px"
   scale-x="4000.1999" />
    <g
   id="g59"
   transform="matrix(1.4160453,0,0,1.4394484,-883.17056,-1071.134)"><g
     transform="translate(727.8316,594)"
     id="g4">
            <path
   id="rect2"
   transform="translate(-727.8316,-594)"
   d="m 611.24219,739.30859 c -0.26747,0 -0.48242,0.25265 -0.48242,0.56641 v 3058.3301 c 0,0.3138 0.21495,0.5664 0.48242,0.5664 H 3411.9531 c 0.2674,0 0.4824,-0.2526 0.4824,-0.5664 V 739.875 c 0,-0.31376 -0.215,-0.56641 -0.4824,-0.56641 z"
   style="fill:url(#_Linear1)"
   inkscape:connector-curvature="0" />
        </g><g
     transform="matrix(1.4483,0,0,1.52533,-131.796,-125.077)"
     id="g8">
            <path
   id="path6"
   transform="matrix(0.69046468,0,0,0.65559584,91.000483,81.999961)"
   d="m 611.24219,739.30859 c -0.26747,0 -0.48242,0.25265 -0.48242,0.56641 v 90.56641 L 1971.1348,2198 994.61914,739.30859 Z M 1971.1348,2198 1606.7676,739.30859 h -296.0821 z m 0,0 128.5371,-1458.69141 h -257.0723 z m 0,0 660.4433,-1458.69141 H 2335.502 Z m 0,0 1441.3007,-1448.9082 v -9.2168 c 0,-0.31376 -0.215,-0.56641 -0.4824,-0.56641 h -464.3027 z m 0,0 1441.3007,-612.3984 v -395.0918 z m 0,0 1441.3007,8.9121 v -318.5742 z m 0,0 1441.3007,632.8965 v -341.668 z m 0,0 1441.3007,1481.5371 v -498.7012 z m 0,0 704.9199,1600.7715 h 391.7012 z m 0,0 124.998,1600.7715 h 292.0723 z m 0,0 -417.0703,1600.7715 h 292.0722 z m 0,0 -1096.62503,1600.7715 h 391.71093 z m 0,0 -1360.37503,927.6523 v 470.6993 z m 0,0 -1360.37503,274.877 v 322.4824 z m 0,0 -1360.37503,-292.2773 v 300.6894 z m 0,0 -1360.37503,-950.9258 v 372.9121 z"
   style="fill:#e9e9e9;fill-opacity:0.3;stroke-width:1.48631608"
   inkscape:connector-curvature="0" />
        </g></g>
    <defs
   id="defs19">
        <linearGradient
   id="_Linear1"
   x1="0"
   y1="0"
   x2="1"
   y2="0"
   gradientUnits="userSpaceOnUse"
   gradientTransform="matrix(2681,1109,-1357.19,3281,661.8316,1451)"><stop
     offset="0"
     style="stop-color:rgb(0,51,255);stop-opacity:0.7"
     id="stop12" /><stop
     offset="0.42"
     style="stop-color:rgb(27,35,255);stop-opacity:0.7"
     id="stop14" /><stop
     offset="1"
     style="stop-color:rgb(86,0,255);stop-opacity:0.7"
     id="stop16" /></linearGradient>
    
        
        
    </defs>
</svg>