<?xml version="1.0" encoding="UTF-8" standalone="no"?>
<!DOCTYPE svg PUBLIC "-//W3C//DTD SVG 1.1//EN" "http://www.w3.org/Graphics/SVG/1.1/DTD/svg11.dtd">
<svg width="100%" height="100%" viewBox="0 0 449 570" version="1.1" xmlns="http://www.w3.org/2000/svg" xmlns:xlink="http://www.w3.org/1999/xlink" xml:space="preserve" xmlns:serif="http://www.serif.com/" style="fill-rule:evenodd;clip-rule:evenodd;stroke-miterlimit:1;">
    <g transform="matrix(1,0,0,1,-482.79,-870.722)">
        <g transform="matrix(1.3636,-0.43352,0.43352,1.3636,-815.52,-252.428)">
            <g transform="matrix(1,0,0,1,21.182,3.026)">
                <g transform="matrix(0.580952,0,0,0.722628,384.109,360.909)">
                    <path d="M713.66,1058.48C713.66,1030.07 684.975,1007.01 649.643,1007.01L420.461,1007.01C385.128,1007.01 356.443,1030.07 356.443,1058.48L356.443,1421.63C356.443,1450.03 385.128,1473.09 420.461,1473.09L649.643,1473.09C684.975,1473.09 713.66,1450.03 713.66,1421.63L713.66,1058.48Z" style="fill:white;stroke:white;stroke-width:35.53px;"/>
                </g>
                <g transform="matrix(0.580952,0,0,0.722628,384.109,360.909)">
                    <path d="M713.66,1058.48C713.66,1030.07 684.975,1007.01 649.643,1007.01L420.461,1007.01C385.128,1007.01 356.443,1030.07 356.443,1058.48L356.443,1421.63C356.443,1450.03 385.128,1473.09 420.461,1473.09L649.643,1473.09C684.975,1473.09 713.66,1450.03 713.66,1421.63L713.66,1058.48Z" style="fill:rgb(213,216,229);stroke:rgb(3,1,80);stroke-width:8.88px;"/>
                </g>
                <g transform="matrix(1.66844,0,0,1.66844,-446.467,-766.084)">
                    <text x="632.01px" y="1151.22px" style="font-family:'NeutonCursive-Regular', 'Neuton Cursive';font-weight:500;font-size:46.001px;">3</text>
                </g>
                <g transform="matrix(-1.66844,0,0,-1.66844,1836.36,3283.01)">
                    <text x="632.01px" y="1151.22px" style="font-family:'NeutonCursive-Regular', 'Neuton Cursive';font-weight:500;font-size:46.001px;">3</text>
                </g>
            </g>
            <g transform="matrix(-1,0,0,1,1444.91,-55)">
                <path d="M721.142,1256.21C716.922,1261.88 707.652,1262.4 702.795,1256.58C700.143,1253.4 699.544,1249.37 700.108,1245.42C702.199,1230.79 710.433,1217.88 722.454,1209.31C734.474,1217.88 742.709,1230.79 744.799,1245.42C745.359,1249.34 744.769,1253.44 742.113,1256.58C737.154,1262.45 727.692,1261.53 723.486,1255.89L728.084,1265.55L716.823,1265.55C718.356,1262.73 719.609,1260.39 721.142,1256.21Z"/>
            </g>
            <g transform="matrix(-1,0,0,1,1445.91,-55)">
                <path d="M721.142,1256.21C716.922,1261.88 707.652,1262.4 702.795,1256.58C700.143,1253.4 699.544,1249.37 700.108,1245.42C702.199,1230.79 710.433,1217.88 722.454,1209.31C734.474,1217.88 742.709,1230.79 744.799,1245.42C745.359,1249.34 744.769,1253.44 742.113,1256.58C737.154,1262.45 727.692,1261.53 723.486,1255.89L728.084,1265.55L716.823,1265.55C718.356,1262.73 719.609,1260.39 721.142,1256.21Z"/>
            </g>
            <g transform="matrix(-1,0,0,1,1445.91,25)">
                <path d="M721.142,1256.21C716.922,1261.88 707.652,1262.4 702.795,1256.58C700.143,1253.4 699.544,1249.37 700.108,1245.42C702.199,1230.79 710.433,1217.88 722.454,1209.31C734.474,1217.88 742.709,1230.79 744.799,1245.42C745.359,1249.34 744.769,1253.44 742.113,1256.58C737.154,1262.45 727.692,1261.53 723.486,1255.89L728.084,1265.55L716.823,1265.55C718.356,1262.73 719.609,1260.39 721.142,1256.21Z"/>
            </g>
            <g transform="matrix(-1,0,0,-1,1445.91,2579.86)">
                <path d="M721.142,1256.21C716.922,1261.88 707.652,1262.4 702.795,1256.58C700.143,1253.4 699.544,1249.37 700.108,1245.42C702.199,1230.79 710.433,1217.88 722.454,1209.31C734.474,1217.88 742.709,1230.79 744.799,1245.42C745.359,1249.34 744.769,1253.44 742.113,1256.58C737.154,1262.45 727.692,1261.53 723.486,1255.89L728.084,1265.55L716.823,1265.55C718.356,1262.73 719.609,1260.39 721.142,1256.21Z"/>
            </g>
        </g>
    </g>
</svg>
