<?xml version="1.0" encoding="UTF-8" standalone="no"?>
<!DOCTYPE svg PUBLIC "-//W3C//DTD SVG 1.1//EN" "http://www.w3.org/Graphics/SVG/1.1/DTD/svg11.dtd">
<svg width="100%" height="100%" viewBox="0 0 314 343" version="1.1" xmlns="http://www.w3.org/2000/svg" xmlns:xlink="http://www.w3.org/1999/xlink" xml:space="preserve" xmlns:serif="http://www.serif.com/" style="fill-rule:evenodd;clip-rule:evenodd;stroke-linecap:round;stroke-linejoin:round;stroke-miterlimit:1;">
    <g transform="matrix(1,0,0,1,-1750.07,-871.275)">
        <g transform="matrix(-1.16015,0,0,1.28184,3318.82,-647.731)">
            <path d="M1217.28,1198.02L1337.83,1258.29L1337.83,1378.84L1217.28,1439.12L1096.73,1378.84L1096.73,1258.29L1217.28,1198.02Z" style="fill:rgb(0,116,0);stroke:white;stroke-width:27.27px;"/>
            <path d="M1217.28,1198.02L1337.83,1258.29L1337.83,1378.84L1217.28,1439.12L1096.73,1378.84L1096.73,1258.29L1217.28,1198.02Z" style="fill:rgb(0,116,0);stroke:rgb(3,1,80);stroke-width:6.82px;stroke-linecap:butt;stroke-linejoin:miter;"/>
            <path d="M1217.28,1318.57L1337.83,1258.29L1337.83,1378.84L1217.28,1439.12L1217.28,1318.57Z" style="fill:rgb(0,116,0);stroke:rgb(3,1,80);stroke-width:6.82px;stroke-linecap:butt;stroke-linejoin:miter;"/>
            <path d="M1217.28,1198.02L1096.73,1258.29L1217.28,1318.57L1337.83,1258.29L1217.28,1198.02Z" style="fill:rgb(117,191,95);stroke:rgb(3,1,80);stroke-width:6.82px;stroke-linecap:butt;stroke-linejoin:miter;"/>
            <path d="M1096.73,1258.29L1217.28,1318.57L1217.28,1439.12L1096.73,1378.84L1096.73,1258.29Z" style="fill:rgb(3,99,3);stroke:rgb(3,1,80);stroke-width:6.82px;stroke-linecap:butt;stroke-linejoin:miter;"/>
            <g transform="matrix(0.636364,0,0,0.698508,490.682,417.2)">
                <circle cx="1249" cy="1336.5" r="16.5" style="fill:rgb(178,185,219);"/>
            </g>
            <g transform="matrix(0.636364,0,0,0.698508,327.646,373.109)">
                <circle cx="1249" cy="1336.5" r="16.5" style="fill:rgb(178,185,219);"/>
            </g>
            <g transform="matrix(0.636364,0,0,0.698508,387.118,401.82)">
                <circle cx="1249" cy="1336.5" r="16.5" style="fill:rgb(178,185,219);"/>
            </g>
            <g transform="matrix(0.636364,0,0,0.698508,327.646,430.53)">
                <circle cx="1249" cy="1336.5" r="16.5" style="fill:rgb(178,185,219);"/>
            </g>
            <g transform="matrix(0.636364,0,0,0.698508,387.118,459.241)">
                <circle cx="1249" cy="1336.5" r="16.5" style="fill:rgb(178,185,219);"/>
            </g>
            <g transform="matrix(0.462487,-0.437109,0.437109,0.462487,56.6854,1207.91)">
                <circle cx="1249" cy="1336.5" r="16.5" style="fill:white;"/>
            </g>
            <g transform="matrix(-0.0397964,-0.626009,0.635082,-0.0403732,418.557,2070.81)">
                <circle cx="1249" cy="1336.5" r="16.5" style="fill:white;"/>
            </g>
        </g>
    </g>
</svg>
