<?xml version="1.0" encoding="UTF-8" standalone="no"?>
<!DOCTYPE svg PUBLIC "-//W3C//DTD SVG 1.1//EN" "http://www.w3.org/Graphics/SVG/1.1/DTD/svg11.dtd">
<svg width="100%" height="100%" viewBox="0 0 366 387" version="1.1" xmlns="http://www.w3.org/2000/svg" xmlns:xlink="http://www.w3.org/1999/xlink" xml:space="preserve" xmlns:serif="http://www.serif.com/" style="fill-rule:evenodd;clip-rule:evenodd;stroke-miterlimit:1;">
    <g transform="matrix(1,0,0,1,-2017.76,-1209.78)">
        <g transform="matrix(3.96769,0.665833,-0.772907,4.60574,-2337.09,-4066.84)">
            <g transform="matrix(-0.993837,-0.0954958,-0.128679,0.993837,2377.03,74.9734)">
                <g transform="matrix(1,0,0,1,-17.9109,-9)">
                    <path d="M941.911,990L926.063,982.481C917.409,980.632 905.691,989.971 914.34,999.111C916.014,1000.88 928.687,1004.55 928.911,1005C931.911,1007 916.079,1000.17 914.34,999.111C912.895,998.235 913.362,998.459 911.911,999C899.162,1003.75 891.204,1013.9 895.911,1017C901.311,1020.55 909.906,1024.48 910.345,1024.48C910.434,1024.48 905.774,1021.96 905.774,1022.46C905.774,1024.83 901.015,1033.32 896.911,1038C892.868,1042.61 895.825,1046.76 895.911,1046L912.335,1054.75C913.397,1047.89 935.911,1043 936.911,1044L946.737,1048.44C946.737,1048.44 944.043,1017.45 943.911,1009C943.781,1000.69 943.911,995 941.911,990Z" style="fill:rgb(154,9,70);stroke:white;stroke-width:7.65px;"/>
                </g>
                <path d="M929,994C930.106,994 935.089,980.253 921,981C906.477,981.77 910.036,994.271 912,996C909.231,995.692 893.136,1006.02 892,1012.5C890.246,1022.5 902.78,1016.83 908.003,1013.89C903.1,1020.96 893.815,1036.86 895,1037C889.087,1047.47 895.313,1046.9 903,1045L917,1042C918.063,1035.15 920.091,1030.55 923,1028C925.333,1030.79 928,1038.68 929,1039.68C929,1039.68 941.884,1038.54 945,1038C948.798,1037.35 954.941,1033.14 948,1029C944.088,1026.66 934.401,1011.11 936.998,1010C936.867,1010.09 935.449,1010.73 936.998,1010C939.19,1008.96 945.748,1008.84 947,1008C950,1006 949.68,1002.57 948,1001C946.1,999.227 942.92,997.291 938.699,995.888C935.9,994.957 932.644,994.26 929,994Z" style="fill:rgb(186,10,26);stroke:white;stroke-width:7.65px;stroke-linecap:round;stroke-linejoin:round;stroke-miterlimit:1.5;"/>
            </g>
            <g transform="matrix(-0.993837,-0.0954958,-0.128679,0.993837,2395.99,67.7393)">
                <path d="M941.911,990L926.063,982.481C917.409,980.632 905.691,989.971 914.34,999.111C916.014,1000.88 928.687,1004.55 928.911,1005C931.911,1007 916.079,1000.17 914.34,999.111C912.895,998.235 913.362,998.459 911.911,999C899.162,1003.75 891.204,1013.9 895.911,1017C901.311,1020.55 909.906,1024.48 910.345,1024.48C910.434,1024.48 905.774,1021.96 905.774,1022.46C905.774,1024.83 901.015,1033.32 896.911,1038C892.868,1042.61 895.825,1046.76 895.911,1046L912.335,1054.75C913.397,1047.89 935.911,1043 936.911,1044L946.737,1048.44C946.737,1048.44 944.043,1017.45 943.911,1009C943.781,1000.69 943.911,995 941.911,990Z" style="fill:rgb(154,9,70);stroke:rgb(3,1,80);stroke-width:1.91px;stroke-linejoin:bevel;stroke-miterlimit:1.5;"/>
            </g>
            <g transform="matrix(-0.993837,-0.0954958,-0.128679,0.993837,2377.03,74.9734)">
                <path d="M929,994C930.106,994 935.089,980.253 921,981C906.477,981.77 910.036,994.271 912,996C909.231,995.692 893.136,1006.02 892,1012.5C890.246,1022.5 902.78,1016.83 908.003,1013.89C903.1,1020.96 893.815,1036.86 895,1037C889.087,1047.47 895.313,1046.9 903,1045L917,1042C918.063,1035.15 920.091,1030.55 923,1028C925.333,1030.79 928,1038.68 929,1039.68C929,1039.68 941.884,1038.54 945,1038C948.798,1037.35 954.941,1033.14 948,1029C944.088,1026.66 934.401,1011.11 936.998,1010C936.867,1010.09 935.449,1010.73 936.998,1010C939.19,1008.96 945.748,1008.84 947,1008C950,1006 949.68,1002.57 948,1001C946.1,999.227 942.92,997.291 938.699,995.888C935.9,994.957 932.644,994.26 929,994Z" style="fill:rgb(186,10,26);stroke:rgb(3,1,80);stroke-width:1.91px;stroke-linecap:round;stroke-linejoin:round;stroke-miterlimit:1.5;"/>
            </g>
        </g>
    </g>
</svg>
